<svg width="375" height="103" viewBox="0 0 375 103" fill="none" xmlns="http://www.w3.org/2000/svg">
<path d="M38.9486 43.218C40.5326 43.218 41.9186 43.398 43.1066 43.758C44.3306 44.082 45.2126 44.388 45.7526 44.676C47.0126 45.432 47.7866 44.964 48.0746 43.272H49.1546C49.0826 44.316 49.0286 45.594 48.9926 47.106C48.9566 48.582 48.9386 50.544 48.9386 52.992H47.8586C47.7146 51.66 47.3906 50.346 46.8866 49.05C46.4186 47.754 45.7166 46.674 44.7806 45.81C43.8806 44.946 42.6926 44.514 41.2166 44.514C40.3166 44.514 39.5606 44.784 38.9486 45.324C38.3366 45.864 38.0306 46.602 38.0306 47.538C38.0306 48.618 38.3546 49.59 39.0026 50.454C39.6506 51.282 40.4786 52.092 41.4866 52.884C42.4946 53.64 43.5026 54.45 44.5106 55.314C46.1666 56.646 47.5526 57.978 48.6686 59.31C49.7846 60.642 50.3426 62.352 50.3426 64.44C50.3426 66.06 49.8386 67.5 48.8306 68.76C47.8586 70.02 46.5446 71.01 44.8886 71.73C43.2686 72.414 41.4506 72.756 39.4346 72.756C38.1746 72.756 37.0766 72.612 36.1406 72.324C35.2046 72.072 34.4486 71.766 33.8726 71.406C33.2966 71.118 32.7926 70.902 32.3606 70.758C31.9646 70.578 31.5686 70.488 31.1726 70.488C30.8126 70.488 30.5066 70.686 30.2546 71.082C30.0026 71.442 29.8046 71.874 29.6606 72.378H28.5806C28.6526 71.226 28.7066 69.822 28.7426 68.166C28.7786 66.51 28.7966 64.314 28.7966 61.578H29.8766C30.0926 63.486 30.5066 65.178 31.1186 66.654C31.7666 68.13 32.5766 69.3 33.5486 70.164C34.5566 70.992 35.7086 71.406 37.0046 71.406C37.8326 71.406 38.5526 71.172 39.1646 70.704C39.8126 70.2 40.1366 69.444 40.1366 68.436C40.1366 66.852 39.6506 65.52 38.6786 64.44C37.7426 63.36 36.5546 62.172 35.1146 60.876C34.0346 59.868 33.0086 58.896 32.0366 57.96C31.1006 56.988 30.3266 55.944 29.7146 54.828C29.1026 53.676 28.7966 52.398 28.7966 50.994C28.7966 49.374 29.2646 47.988 30.2006 46.836C31.1726 45.684 32.4326 44.802 33.9806 44.19C35.5286 43.542 37.1846 43.218 38.9486 43.218Z" fill="#433E38"/>
<path d="M67.4973 43.218C70.3053 43.218 72.7353 43.704 74.7873 44.676C76.8753 45.612 78.4953 47.16 79.6473 49.32C80.7993 51.48 81.3753 54.378 81.3753 58.014C81.3753 61.65 80.7993 64.548 79.6473 66.708C78.4953 68.868 76.8753 70.416 74.7873 71.352C72.7353 72.288 70.3053 72.756 67.4973 72.756C64.7253 72.756 62.2953 72.288 60.2073 71.352C58.1193 70.416 56.4993 68.868 55.3473 66.708C54.1953 64.548 53.6193 61.65 53.6193 58.014C53.6193 54.378 54.1953 51.48 55.3473 49.32C56.4993 47.16 58.1193 45.612 60.2073 44.676C62.2953 43.704 64.7253 43.218 67.4973 43.218ZM67.4973 44.298C66.4173 44.298 65.5173 45.378 64.7973 47.538C64.0773 49.698 63.7173 53.19 63.7173 58.014C63.7173 62.838 64.0773 66.33 64.7973 68.49C65.5173 70.614 66.4173 71.676 67.4973 71.676C68.5773 71.676 69.4773 70.614 70.1973 68.49C70.9173 66.33 71.2773 62.838 71.2773 58.014C71.2773 53.19 70.9173 49.698 70.1973 47.538C69.4773 45.378 68.5773 44.298 67.4973 44.298Z" fill="#433E38"/>
<path d="M112.651 43.38V66.114C112.651 67.734 112.867 68.94 113.299 69.732C113.767 70.488 114.559 70.866 115.675 70.866V72C114.559 71.892 113.443 71.838 112.327 71.838C110.527 71.838 108.853 71.892 107.305 72C105.757 72.108 104.299 72.306 102.931 72.594V68.706C102.067 70.146 100.897 71.19 99.4205 71.838C97.9805 72.45 96.2886 72.756 94.3446 72.756C92.6886 72.756 91.3746 72.54 90.4026 72.108C89.4666 71.712 88.7466 71.208 88.2426 70.596C87.7026 69.948 87.3066 69.084 87.0546 68.004C86.8026 66.924 86.6766 65.466 86.6766 63.63V49.86C86.6766 48.24 86.4606 47.052 86.0286 46.296C85.5966 45.504 84.8046 45.108 83.6526 45.108V43.974C84.8046 44.082 85.9206 44.136 87.0006 44.136C88.8006 44.136 90.4745 44.082 92.0225 43.974C93.6065 43.83 95.0645 43.632 96.3965 43.38V66.546C96.3965 67.302 96.4865 67.932 96.6665 68.436C96.8465 68.94 97.1345 69.318 97.5305 69.57C97.9265 69.822 98.4305 69.948 99.0425 69.948C100.051 69.948 100.951 69.588 101.743 68.868C102.535 68.112 102.931 67.176 102.931 66.06V49.86C102.931 48.24 102.715 47.052 102.283 46.296C101.851 45.504 101.059 45.108 99.9065 45.108V43.974C101.059 44.082 102.175 44.136 103.255 44.136C105.055 44.136 106.729 44.082 108.277 43.974C109.861 43.83 111.319 43.632 112.651 43.38Z" fill="#433E38"/>
<path d="M130.366 29.772V66.978C130.366 68.49 130.582 69.516 131.014 70.056C131.482 70.596 132.274 70.866 133.39 70.866V72C132.67 71.964 131.59 71.928 130.15 71.892C128.71 71.82 127.234 71.784 125.722 71.784C124.21 71.784 122.68 71.82 121.132 71.892C119.584 71.928 118.414 71.964 117.622 72V70.866C118.738 70.866 119.512 70.596 119.944 70.056C120.412 69.516 120.646 68.49 120.646 66.978V36.252C120.646 34.632 120.43 33.444 119.998 32.688C119.566 31.896 118.774 31.5 117.622 31.5V30.366C118.774 30.474 119.89 30.528 120.97 30.528C122.77 30.528 124.444 30.474 125.992 30.366C127.576 30.222 129.034 30.024 130.366 29.772Z" fill="#433E38"/>
<path d="M160.109 29.772V47.268C160.973 45.828 162.125 44.802 163.565 44.19C165.041 43.542 166.751 43.218 168.695 43.218C170.351 43.218 171.647 43.434 172.583 43.866C173.555 44.262 174.293 44.766 174.797 45.378C175.337 46.026 175.733 46.89 175.985 47.97C176.237 49.05 176.363 50.508 176.363 52.344V66.978C176.363 68.49 176.579 69.516 177.011 70.056C177.479 70.596 178.271 70.866 179.387 70.866V72C178.667 71.964 177.569 71.928 176.093 71.892C174.653 71.82 173.231 71.784 171.827 71.784C170.315 71.784 168.839 71.82 167.399 71.892C165.959 71.928 164.879 71.964 164.159 72V70.866C165.095 70.866 165.743 70.596 166.103 70.056C166.463 69.516 166.643 68.49 166.643 66.978V49.428C166.643 48.672 166.553 48.042 166.373 47.538C166.193 47.034 165.905 46.656 165.509 46.404C165.149 46.152 164.645 46.026 163.997 46.026C162.989 46.026 162.089 46.386 161.297 47.106C160.505 47.826 160.109 48.762 160.109 49.914V66.978C160.109 68.49 160.289 69.516 160.649 70.056C161.045 70.596 161.693 70.866 162.593 70.866V72C161.909 71.964 160.901 71.928 159.569 71.892C158.237 71.82 156.869 71.784 155.465 71.784C153.953 71.784 152.423 71.82 150.875 71.892C149.327 71.928 148.157 71.964 147.365 72V70.866C148.481 70.866 149.255 70.596 149.687 70.056C150.155 69.516 150.389 68.49 150.389 66.978V36.252C150.389 34.632 150.173 33.444 149.741 32.688C149.309 31.896 148.517 31.5 147.365 31.5V30.366C148.517 30.474 149.633 30.528 150.713 30.528C152.513 30.528 154.187 30.474 155.735 30.366C157.319 30.222 158.777 30.024 160.109 29.772Z" fill="#433E38"/>
<path d="M195.536 43.218C198.704 43.218 201.188 44.154 202.988 46.026C204.824 47.862 205.742 50.958 205.742 55.314H188.84L188.732 54.288H197.858C197.894 52.524 197.822 50.904 197.642 49.428C197.462 47.916 197.174 46.71 196.778 45.81C196.382 44.91 195.842 44.46 195.158 44.46C194.186 44.46 193.394 45.234 192.782 46.782C192.17 48.294 191.774 50.904 191.594 54.612L191.81 55.044C191.774 55.404 191.756 55.764 191.756 56.124C191.756 56.484 191.756 56.862 191.756 57.258C191.756 59.778 192.062 61.74 192.674 63.144C193.322 64.548 194.114 65.52 195.05 66.06C196.022 66.6 196.994 66.87 197.966 66.87C198.686 66.87 199.658 66.69 200.882 66.33C202.106 65.934 203.312 64.908 204.5 63.252L205.418 63.576C204.986 65.016 204.284 66.456 203.312 67.896C202.376 69.3 201.152 70.47 199.64 71.406C198.128 72.306 196.292 72.756 194.132 72.756C191.828 72.756 189.722 72.288 187.814 71.352C185.942 70.416 184.448 68.868 183.332 66.708C182.216 64.548 181.658 61.65 181.658 58.014C181.658 54.558 182.27 51.75 183.494 49.59C184.718 47.394 186.374 45.792 188.462 44.784C190.586 43.74 192.944 43.218 195.536 43.218Z" fill="#433E38"/>
<path d="M227.459 43.218C228.755 43.218 229.763 43.506 230.483 44.082C231.203 44.622 231.707 45.324 231.995 46.188C232.283 47.016 232.427 47.844 232.427 48.672C232.427 50.292 231.959 51.588 231.023 52.56C230.123 53.496 228.935 53.964 227.459 53.964C225.875 53.964 224.669 53.604 223.841 52.884C223.049 52.164 222.653 51.228 222.653 50.076C222.653 48.852 222.905 47.844 223.409 47.052C223.949 46.26 224.615 45.594 225.407 45.054C224.759 45.054 224.183 45.18 223.679 45.432C223.103 45.684 222.563 46.062 222.059 46.566C221.591 47.034 221.213 47.592 220.925 48.24C220.637 48.852 220.493 49.518 220.493 50.238V66.438C220.493 68.166 220.853 69.336 221.573 69.948C222.293 70.56 223.481 70.866 225.137 70.866V72C224.309 71.964 223.067 71.928 221.411 71.892C219.791 71.82 218.117 71.784 216.389 71.784C214.769 71.784 213.131 71.82 211.475 71.892C209.819 71.928 208.577 71.964 207.749 72V70.866C208.865 70.866 209.639 70.596 210.071 70.056C210.539 69.516 210.773 68.49 210.773 66.978V49.86C210.773 48.24 210.557 47.052 210.125 46.296C209.693 45.504 208.901 45.108 207.749 45.108V43.974C208.901 44.082 210.017 44.136 211.097 44.136C212.897 44.136 214.571 44.082 216.119 43.974C217.703 43.83 219.161 43.632 220.493 43.38V47.268C220.961 46.332 221.537 45.576 222.221 45C222.905 44.388 223.679 43.938 224.543 43.65C225.443 43.362 226.415 43.218 227.459 43.218Z" fill="#433E38"/>
<path d="M252.889 43.218C255.553 43.218 257.785 44.334 259.585 46.566C261.385 48.762 262.285 52.164 262.285 56.772C262.285 60.84 261.709 64.044 260.557 66.384C259.405 68.724 257.875 70.38 255.967 71.352C254.059 72.288 251.971 72.756 249.703 72.756C248.479 72.756 247.363 72.684 246.355 72.54C245.347 72.396 244.375 72.036 243.439 71.46L244.033 70.596C244.501 70.956 245.023 71.226 245.599 71.406C246.175 71.586 246.715 71.676 247.219 71.676C248.911 71.676 250.153 70.542 250.945 68.274C251.773 66.006 252.187 62.586 252.187 58.014C252.187 54.81 252.025 52.344 251.701 50.616C251.377 48.888 250.945 47.7 250.405 47.052C249.865 46.368 249.253 46.026 248.569 46.026C247.561 46.026 246.661 46.386 245.869 47.106C245.077 47.826 244.681 48.762 244.681 49.914V47.268C245.509 45.9 246.625 44.892 248.029 44.244C249.433 43.56 251.053 43.218 252.889 43.218ZM244.681 29.772V72.108C243.493 71.604 242.269 71.334 241.009 71.298C239.785 71.262 238.669 71.388 237.661 71.676C236.653 71.964 235.879 72.36 235.339 72.864L234.583 72.324C234.763 71.82 234.871 71.334 234.907 70.866C234.943 70.362 234.961 69.858 234.961 69.354V36.252C234.961 34.632 234.745 33.444 234.313 32.688C233.881 31.896 233.089 31.5 231.937 31.5V30.366C233.089 30.474 234.205 30.528 235.285 30.528C237.085 30.528 238.759 30.474 240.307 30.366C241.891 30.222 243.349 30.024 244.681 29.772Z" fill="#433E38"/>
<path d="M291.512 43.218C293.096 43.218 294.5 43.38 295.724 43.704C296.948 44.028 297.92 44.406 298.64 44.838C299.612 45.414 300.386 46.188 300.962 47.16C301.574 48.096 301.88 49.194 301.88 50.454C301.88 51.93 301.394 53.172 300.422 54.18C299.45 55.188 298.208 55.692 296.696 55.692C295.112 55.692 293.888 55.242 293.024 54.342C292.16 53.442 291.728 52.272 291.728 50.832C291.728 49.464 292.16 48.312 293.024 47.376C293.924 46.404 294.968 45.756 296.156 45.432C295.904 45.252 295.598 45.108 295.238 45C294.914 44.856 294.5 44.784 293.996 44.784C292.7 44.784 291.638 45.18 290.81 45.972C290.018 46.728 289.388 47.736 288.92 48.996C288.488 50.256 288.182 51.606 288.002 53.046C287.822 54.486 287.732 55.89 287.732 57.258C287.732 59.778 288.074 61.74 288.758 63.144C289.442 64.548 290.306 65.52 291.35 66.06C292.394 66.6 293.438 66.87 294.482 66.87C295.202 66.87 296.174 66.69 297.398 66.33C298.622 65.934 299.828 64.908 301.016 63.252L301.934 63.576C301.502 65.016 300.8 66.456 299.828 67.896C298.892 69.3 297.668 70.47 296.156 71.406C294.644 72.306 292.808 72.756 290.648 72.756C288.236 72.756 286.04 72.288 284.06 71.352C282.116 70.416 280.55 68.868 279.362 66.708C278.21 64.548 277.634 61.65 277.634 58.014C277.634 54.558 278.246 51.75 279.47 49.59C280.694 47.394 282.35 45.792 284.438 44.784C286.562 43.74 288.92 43.218 291.512 43.218Z" fill="#433E38"/>
<path d="M318.724 43.218C321.532 43.218 323.962 43.704 326.014 44.676C328.102 45.612 329.722 47.16 330.874 49.32C332.026 51.48 332.602 54.378 332.602 58.014C332.602 61.65 332.026 64.548 330.874 66.708C329.722 68.868 328.102 70.416 326.014 71.352C323.962 72.288 321.532 72.756 318.724 72.756C315.952 72.756 313.522 72.288 311.434 71.352C309.346 70.416 307.726 68.868 306.574 66.708C305.422 64.548 304.846 61.65 304.846 58.014C304.846 54.378 305.422 51.48 306.574 49.32C307.726 47.16 309.346 45.612 311.434 44.676C313.522 43.704 315.952 43.218 318.724 43.218ZM318.724 44.298C317.644 44.298 316.744 45.378 316.024 47.538C315.304 49.698 314.944 53.19 314.944 58.014C314.944 62.838 315.304 66.33 316.024 68.49C316.744 70.614 317.644 71.676 318.724 71.676C319.804 71.676 320.704 70.614 321.424 68.49C322.144 66.33 322.504 62.838 322.504 58.014C322.504 53.19 322.144 49.698 321.424 47.538C320.704 45.378 319.804 44.298 318.724 44.298Z" fill="#433E38"/>
<path d="M341.899 63.468C343.591 63.468 344.905 63.864 345.841 64.656C346.777 65.412 347.245 66.564 347.245 68.112C347.245 69.66 346.777 70.83 345.841 71.622C344.905 72.378 343.591 72.756 341.899 72.756C340.171 72.756 338.839 72.378 337.903 71.622C337.003 70.83 336.553 69.66 336.553 68.112C336.553 66.564 337.003 65.412 337.903 64.656C338.839 63.864 340.171 63.468 341.899 63.468Z" fill="#433E38"/>
</svg>
